# xmcd
# 
# Track frame offsets:
#     150
#     22812
#     30676
#     53338
#     75989
#     98651
#     110009
# 
# Disc length: 1766
# 
# Revision: 0
# Processed by: cddbd v1.5.2PL0 Copyright (c) Steve Scherf et al.
# Submitted via: fre:ac v1.0.17
# 
DISCID=3f06e407
DTITLE=Ny Ainga - Charlie
DYEAR=0
DGENRE=Other
TTITLE0=Ampela
TTITLE1=Analamanga
TTITLE2=Antalaha
TTITLE3=Charline
TTITLE4=Haiko foana akia
TTITLE5=Quand tu reviendras
TTITLE6=Tsy manala zaza
EXTD=
EXTT0=
EXTT1=
EXTT2=
EXTT3=
EXTT4=
EXTT5=
EXTT6=
PLAYORDER=
